# xmcd
#
# Track frame offsets:
# 150
# 14566
# 27939
# 45460
# 62108
# 76054
# 88136
# 104005
# 118482
# 132974
# 150966
# 167737
# 180472
#
# Disc length: 2832 seconds
#
# Revision: 0
# Processed by: cddbd v1.5.2PL0 Copyright (c) Steve Scherf et al.
# Submitted via: CoinsHifi v1.9g contact@coinshifi.com
#
DISCID=a50b0e0d
DTITLE=Nolwenn Leroy - Bretonne
DYEAR=2010
DGENRE=Celtic
TTITLE0=tri martolod
TTITLE1=la jument de Michao
TTITLE2=suite sudarmoricaine
TTITLE3=Greensleeves
TTITLE4=Brest
TTITLE5=Bro Gozh Va Zadou
TTITLE6=Mna Na H-Eireann
TTITLE7=Ma Bretagne quand elle pleut
TTITLE8=Je ne serai jamais ta Parisienne
TTITLE9=Karantez Vro
TTITLE10=Le Bagad de Lann-Bihoué
TTITLE11=Dans les prisons de Nantes
TTITLE12=Rentrer en Bretagne
EXTD=
EXTT0=Live
EXTT1=Live
EXTT2=Live
EXTT3=Live
EXTT4=Live
EXTT5=Live
EXTT6=Live
EXTT7=Live
EXTT8=Live
EXTT9=Live
EXTT10=Live
EXTT11=Live
EXTT12=Live
PLAYORDER=
